<?xml version="1.0" encoding="utf-8"?>
<!-- Generator: Adobe Illustrator 19.2.1, SVG Export Plug-In . SVG Version: 6.00 Build 0)  -->
<svg version="1.1" id="Layer_1" xmlns="http://www.w3.org/2000/svg" xmlns:xlink="http://www.w3.org/1999/xlink" x="0px" y="0px"
	 viewBox="0 0 975 315" style="enable-background:new 0 0 975 315;" xml:space="preserve">
<style type="text/css">
	.st0{fill:#FFFFFF;stroke:#FFFFFF;stroke-miterlimit:10;}
	.st1{fill:#FFFFFF;stroke:#FFFFFF;}
	.st2{fill:#FFFFFF;stroke:#FFFFFF;stroke-width:2;}
</style>
<g>
	<path class="st0" d="M349.8,97v2.4c22.3,3.5,20,8.7,7.3,41.4l-17.3,45l-23.5-61.4c-3.8-10-10.6-22.8,10.1-25V97l-127,0v2.3
		c16.6,3.1,20.4,7.5,20.6,22.3l0.7,57L148.2,97H96.1v2.3c20.6,2,22,11.1,22,30.9v16.4c0,19,3.1,51.2-28.6,51.2
		c-40.2,0-35.5-40.3-35.5-43.2v-32c0-17.2,0.3-20.3,19.5-23.3V97H22.8v2.3c17.6,2.5,17.8,7.2,18.2,23.3v35C41,170,36.3,205,81.8,205
		c32.6,0,40.7-20.4,41.1-40.6l0.9-34.2c0.6-20.6-2.5-30.9,10.7-30.9c13.3,0,10.5,10.5,10.5,26.1v23.4c0,35.4,0.7,49.8-19.1,52v2.3
		h43.9v-2.3c-21.3-4.5-20.4-12.5-20.4-51.2v-28.7c24.8,28.4,51,52.8,74.4,82.3l1.9-0.5c-0.7-34,0.6-68.6,0.6-85.9
		c0-10.7,1.8-17.5,11.1-17.5c10.1,0,9.4,7.2,9.9,23.2v54.9c-0.4,16.1-0.6,20.8-18.2,23.3v2.3h72.4l8.4-29l-1.9-0.9
		c-11.3,20-15,27.3-37.3,25.6l-8.2-1.4c-2.2-7.5-2.2-15.8-2.2-23.6v-51.2c0-16.1,2.5-23.3,17-23.3s19.1,11.9,23.5,23.5l33.2,80.4
		h2.9l27.2-66.9c9.1-23.1,13.4-35.6,27.2-36.9V97H349.8z"/>
</g>
<g>
	<g>
		<path class="st1" d="M430,144.7c8.1-1.1,8.2-3.1,8.4-10.1v-23.9c-0.2-7-0.3-9-8.4-10.1v-1h36.5l-0.8,10.5h-1
			c-0.5-8.8-6.8-8.8-13.6-8.8h-6.6v19.3h7.1c5.1,0,9-0.4,9.7-6.2h1v15.1h-1c-0.9-6-4.6-6-9.7-6h-7.1v11.1c0,4-1,9.6,10.2,9.6
			c8.6,0,12.8-3.3,14.5-11.8h1c-0.1,5.2-1,9.4-2.3,13.4H430V144.7z"/>
		<path class="st1" d="M475.2,100l16.4-0.5c29.9-1,33,16.3,33,23.4c0,9.7-6.2,23.3-29.6,23.1l-20.2-0.1v-1c8.1-1.1,8.2-3.1,8.4-10.1
			v-23.6c-0.2-7-0.3-9-8-10.1V100z M489.1,135.3c0,4.5,0.8,8.9,9.2,8.9c7.8,0,18.3-4.9,18.3-20.4c0-16.3-12.8-23.1-27.6-23V135.3z"
			/>
		<path class="st1" d="M583.9,99.6v1c-6.2,0.7-6.6,4.5-6.9,13.4l-0.4,14.9c-0.2,8.8-3.9,17.6-19,17.6c-21,0-18.9-15.2-18.9-20.6
			v-15.2c-0.2-7-0.3-9-8.4-10.1v-1h23.4v1c-8.9,1.3-9,2.6-9,10.1v13.9c0,1.3-2.2,18.8,16.4,18.8c14.7,0,13.2-14,13.2-22.3V114
			c0-8.6-0.7-12.6-10.2-13.4v-1H583.9z"/>
		<path class="st1" d="M631.2,113.6h-1c-1.3-7.7-5.8-13.2-13.9-13.2c-12.4,0-19.4,10.2-19.4,21.9c0,13.4,10.3,22.7,20.1,22.7
			c8.9,0,12.4-6.5,15.5-13.8l1,0.4c-0.8,4.1-2.1,8.2-3.7,12.2c-4.3,2.1-9,2.9-13.8,2.9c-14.2,0-26.8-8.1-26.8-23.5
			c0-12.1,9.4-24.3,27.4-24.3c5.2,0,10.4,1,14.9,3.7V113.6z"/>
		<path class="st1" d="M648.9,126.4c-1.2,3.4-4.1,10.5-4.1,13.7c0,4.1,4.7,4.1,7.7,4.6v1h-18.6v-1c6-1.6,6.7-3,8.8-8.3l7.7-20
			l4.1-11.1c0.6-1.8,1.5-3.4,0.7-4.7c1.8-0.7,3.5-2,5-3.7l14.9,39.8c1.8,5,3,6.9,8.4,7.9v1h-20v-1c2.4-0.5,5.2-1.3,5.2-4.3
			c0-2.9-2.6-9.2-4.3-14H648.9z M656.4,105.6l-6.4,17.6h13.4L656.4,105.6z"/>
		<path class="st1" d="M722.4,97.5h0.5l1,12.7l-1,0.2c-2.4-8.4-6.1-8.8-13.9-8.8h-4.1V133c0,8.4,0.4,10.7,9.5,11.7v1h-25v-1
			c9.1-1.1,9.5-3.3,9.5-11.7v-31.4h-4.1c-7.8,0-11.5,0.3-13.9,8.8l-1-0.2l1-12.7h0.5l0.7,0.6c1.7,1.6,2,1.5,4.2,1.5h31.1
			c2.2,0,2.5,0.1,4.2-1.5L722.4,97.5z"/>
		<path class="st1" d="M741.6,134.6c0.2,7,0.3,9,8.4,10.1v1h-22.8v-1c8.1-1.1,8.2-3.1,8.4-10.1v-23.9c-0.2-7-0.3-9-8.4-10.1v-1H750
			v1c-8.1,1.1-8.2,3.1-8.4,10.1V134.6z"/>
		<path class="st1" d="M805.5,122.7c0,14.6-10.6,23.9-24.8,23.9c-14.3,0-24.8-9.3-24.8-24c0-14.5,10.6-23.8,24.8-23.8
			C798,98.8,805.5,110.6,805.5,122.7z M763.7,121c0,10.5,5.6,24,17.8,24c11.2,0,16.2-11.4,16.2-21.1c-0.2-12-7.2-23.4-17.6-23.4
			C768.4,100.4,763.7,111.8,763.7,121z"/>
		<path class="st1" d="M855,135.1l-0.3-24.8c-0.1-6.4-1.8-8.3-9.5-9.7v-1h18.5v1c-4.7,0.6-5.6,3.2-6.1,7.6c-1,7.5-0.6,23.8-0.3,38.6
			l-0.9,0.2c-10.9-12.8-22.9-24.7-34.4-37.1v12.5c0,16.8-0.4,20.3,9.4,22.3v1h-20.3v-1c9.2-1,8.8-7.2,8.8-22.6v-10.2
			c0-6.8-1.1-9.4-9.7-11.3v-1h11.2L855,135.1z"/>
		<path class="st1" d="M878.2,126.4c-1.2,3.4-4.1,10.5-4.1,13.7c0,4.1,4.7,4.1,7.7,4.6v1h-18.6v-1c6-1.6,6.7-3,8.8-8.3l7.7-20
			l4.1-11.1c0.6-1.8,1.5-3.4,0.7-4.7c1.8-0.7,3.5-2,5-3.7l14.9,39.8c1.8,5,3,6.9,8.4,7.9v1h-20v-1c2.4-0.5,5.2-1.3,5.2-4.3
			c0-2.9-2.6-9.2-4.3-14H878.2z M885.7,105.6l-6.4,17.6h13.4L885.7,105.6z"/>
		<path class="st1" d="M913.1,144.7c8.1-1.1,8.2-3.1,8.4-10.1v-23.9c-0.2-7-0.3-9-8.4-10.1v-1h22.8v1c-8.1,1.1-8.4,3.1-8.4,10.1V133
			c0,3.4,0,7,1,10.3l8.3,0.6c10.3,0.7,12-2.4,17.2-11.1l0.9,0.4l-3.9,12.6h-37.9V144.7z"/>
	</g>
	<g>
		<path class="st1" d="M481.2,181.1c0,14.6-10.6,23.9-24.8,23.9c-14.3,0-24.8-9.3-24.8-24c0-14.5,10.6-23.8,24.8-23.8
			C473.7,157.2,481.2,169,481.2,181.1z M439.4,179.4c0,10.5,5.6,24,17.8,24c11.2,0,16.2-11.4,16.2-21.1c-0.2-12-7.2-23.4-17.6-23.4
			C444.1,158.8,439.4,170.2,439.4,179.4z"/>
		<path class="st1" d="M540.5,158v1c-6.2,0.7-6.6,4.5-6.9,13.4l-0.4,14.9c-0.2,8.8-3.9,17.6-19,17.6c-21,0-18.9-15.2-18.9-20.6
			v-15.2c-0.2-7-0.3-9-8.4-10.1v-1h23.4v1c-8.9,1.3-9,2.6-9,10.1v13.9c0,1.3-2.2,18.8,16.4,18.8c14.7,0,13.2-14,13.2-22.3v-7.1
			c0-8.6-0.7-12.6-10.2-13.4v-1H540.5z"/>
		<path class="st1" d="M585.4,155.9h0.5l1,12.7l-1,0.2c-2.4-8.4-6.1-8.8-13.9-8.8H568v31.4c0,8.4,0.4,10.7,9.5,11.7v1h-25v-1
			c9.1-1.1,9.5-3.3,9.5-11.7v-31.4h-4.1c-7.8,0-11.5,0.3-13.9,8.8l-1-0.2l1-12.7h0.5l0.7,0.6c1.7,1.6,2,1.5,4.2,1.5h31.1
			c2.2,0,2.5,0.1,4.2-1.5L585.4,155.9z"/>
		<path class="st1" d="M598.5,172c0-10.4-0.3-11.9-7.9-12.6v-1l16.6-0.5c17.1-0.5,18.5,7.8,18.5,11.1c0,5.7-3.5,9-8.4,11.1l0.3,0.5
			c5.2,9.2,11.7,20.8,22.9,23.1l-0.2,1c-7.2-0.3-12.5-0.1-16.4-4.2c-4.5-4.7-8-10.7-9.4-13.6c-2.7-5.6-5.2-4-9.9-4.8v10.9
			c0,7.5,0.1,8.8,9.4,10.1v1h-23.8v-1c8.1-1.1,8.2-3.1,8.4-10.1V172z M604.5,181c6.5-0.1,14.1-3.1,14.1-10.6c0-7.9-7-11.1-14.1-11.1
			V181z"/>
		<path class="st1" d="M637.7,203.2c8.1-1.1,8.2-3.1,8.4-10.1v-23.9c-0.2-7-0.3-9-8.4-10.1v-1h36.5l-0.8,10.5h-1
			c-0.5-8.8-6.8-8.8-13.6-8.8h-6.6V179h7.1c5.1,0,9-0.4,9.7-6.2h1v15.1h-1c-0.9-6-4.6-6-9.7-6h-7.1V193c0,4-1,9.6,10.2,9.6
			c8.6,0,12.8-3.3,14.5-11.8h1c-0.1,5.2-1,9.4-2.3,13.4h-37.7V203.2z"/>
		<path class="st1" d="M693.7,184.8c-1.2,3.4-4.1,10.5-4.1,13.7c0,4.1,4.7,4.1,7.7,4.6v1h-18.6v-1c6-1.6,6.7-3,8.8-8.3l7.7-20
			l4.1-11.1c0.6-1.8,1.5-3.4,0.7-4.7c1.8-0.7,3.5-2,5-3.7l14.9,39.8c1.8,5,3,6.9,8.4,7.9v1h-20v-1c2.4-0.5,5.2-1.3,5.2-4.3
			c0-2.9-2.6-9.2-4.3-14H693.7z M701.2,164.1l-6.4,17.6h13.4L701.2,164.1z"/>
		<path class="st1" d="M772.4,172h-1c-1.3-7.7-5.8-13.2-13.9-13.2c-12.4,0-19.4,10.2-19.4,21.9c0,13.4,10.3,22.7,20.1,22.7
			c8.9,0,12.4-6.5,15.5-13.8l1,0.4c-0.8,4.1-2.1,8.2-3.7,12.2c-4.3,2.1-9,2.9-13.8,2.9c-14.2,0-26.8-8.1-26.8-23.5
			c0-12.1,9.4-24.3,27.4-24.3c5.2,0,10.4,1,14.9,3.7V172z"/>
		<path class="st1" d="M793,193.1c0,7.5,0.1,8.8,9,10.1v1h-23.4v-1c8.1-1.1,8.2-3.1,8.4-10.1v-23.9c-0.2-7-0.3-9-8.4-10.1v-1H802v1
			c-8.9,1.3-9,2.6-9,10.1v9.8h27.3v-9.8c0-7.5-0.1-8.8-9-10.1v-1h23.4v1c-8.1,1.1-8.2,3.1-8.4,10.1v23.9c0.2,7,0.3,9,8.4,10.1v1
			h-23.4v-1c8.9-1.3,9-2.6,9-10.1v-11.2H793V193.1z"/>
	</g>
</g>
<g>
	<line class="st2" x1="406.6" y1="81" x2="406.6" y2="221"/>
</g>
</svg>
