<?xml version="1.0" encoding="utf-8"?>
<!-- Generator: Adobe Illustrator 19.2.1, SVG Export Plug-In . SVG Version: 6.00 Build 0)  -->
<svg version="1.1" id="Layer_1" xmlns="http://www.w3.org/2000/svg" xmlns:xlink="http://www.w3.org/1999/xlink" x="0px" y="0px"
	 viewBox="0 0 622.1 92" style="enable-background:new 0 0 622.1 92;" xml:space="preserve">
<style type="text/css">
	.st0{fill:#FFFFFF;stroke:#FFFFFF;stroke-miterlimit:10;}
	.st1{fill:#FFFFFF;stroke:#FFFFFF;}
	.st2{fill:none;stroke:#FFFFFF;stroke-width:2;}
</style>
<g>
	<path class="st0" d="M187,19.7V21c12.2,1.9,10.9,4.7,4,22.6l-9.4,24.5l-12.8-33.5c-2.1-5.5-5.8-12.4,5.5-13.6v-1.3H105V21
		c9,1.7,11.1,4.1,11.2,12.2l0.4,31.1L77.1,19.7H48.7V21c11.2,1.1,12,6.1,12,16.8v8.9c0,10.4,1.7,27.9-15.6,27.9
		c-21.9,0-19.4-22-19.4-23.5V33.7c0-9.4,0.2-11.1,10.6-12.7v-1.3H8.7V21c9.6,1.4,9.7,3.9,9.9,12.7v19.1c0,6.8-2.6,25.8,22.2,25.8
		c17.8,0,22.2-11.1,22.4-22.1l0.5-18.6C64.1,26.6,62.4,21,69.6,21c7.3,0,5.7,5.7,5.7,14.2V48c0,19.3,0.4,27.1-10.4,28.3v1.3h23.9
		v-1.3c-11.6-2.5-11.1-6.8-11.1-27.9V32.8c13.5,15.5,27.8,28.8,40.6,44.9l1-0.3c-0.4-18.5,0.3-37.4,0.3-46.8c0-5.8,1-9.5,6.1-9.5
		c5.5,0,5.1,3.9,5.4,12.6v29.9c-0.2,8.8-0.3,11.3-9.9,12.7v1.3h39.5l4.6-15.8l-1-0.5c-6.2,10.9-8.2,14.9-20.3,14l-4.5-0.8
		c-1.2-4.1-1.2-8.6-1.2-12.9V33.6c0-8.8,1.4-12.7,9.3-12.7c7.9,0,10.4,6.5,12.8,12.8l18.1,43.8h1.6l14.8-36.5
		c5-12.6,7.3-19.4,14.8-20.1v-1.3H187z"/>
</g>
<g>
	<g>
		<path class="st1" d="M230.7,45.7c4.4-0.6,4.5-1.7,4.6-5.5v-13c-0.1-3.8-0.2-4.9-4.6-5.5v-0.5h19.9l-0.4,5.7h-0.5
			c-0.3-4.8-3.7-4.8-7.4-4.8h-3.6v10.5h3.9c2.8,0,4.9-0.2,5.3-3.4h0.5v8.2h-0.5c-0.5-3.3-2.5-3.3-5.3-3.3h-3.9v6.1
			c0,2.2-0.5,5.2,5.6,5.2c4.7,0,7-1.8,7.9-6.4h0.5c-0.1,2.8-0.5,5.1-1.3,7.3h-20.7V45.7z"/>
		<path class="st1" d="M255.4,21.4l8.9-0.3c16.3-0.5,18,8.9,18,12.8c0,5.3-3.4,12.7-16.1,12.6l-11-0.1v-0.5c4.4-0.6,4.5-1.7,4.6-5.5
			V27.5c-0.1-3.8-0.2-4.9-4.4-5.5L255.4,21.4L255.4,21.4z M262.9,40.6c0,2.5,0.4,4.9,5,4.9c4.3,0,10-2.7,10-11.1
			c0-8.9-7-12.6-15-12.5L262.9,40.6L262.9,40.6z"/>
		<path class="st1" d="M314.6,21.1v0.5c-3.4,0.4-3.6,2.5-3.8,7.3l-0.2,8.1c-0.1,4.8-2.1,9.6-10.4,9.6c-11.4,0-10.3-8.3-10.3-11.2
			v-8.3c-0.1-3.8-0.2-4.9-4.6-5.5v-0.5h12.8v0.5c-4.9,0.7-4.9,1.4-4.9,5.5v7.6c0,0.7-1.2,10.2,8.9,10.2c8,0,7.2-7.6,7.2-12.2V29
			c0-4.7-0.4-6.9-5.6-7.3v-0.5H314.6z"/>
		<path class="st1" d="M340.4,28.8h-0.5c-0.7-4.2-3.2-7.2-7.6-7.2c-6.8,0-10.6,5.6-10.6,11.9c0,7.3,5.6,12.4,11,12.4
			c4.9,0,6.8-3.5,8.4-7.5l0.5,0.2c-0.4,2.2-1.1,4.5-2,6.7c-2.3,1.1-4.9,1.6-7.5,1.6c-7.7,0-14.6-4.4-14.6-12.8
			c0-6.6,5.1-13.2,14.9-13.2c2.8,0,5.7,0.5,8.1,2v6H340.4z"/>
		<path class="st1" d="M350,35.7c-0.7,1.9-2.2,5.7-2.2,7.5c0,2.2,2.6,2.2,4.2,2.5v0.5h-10.1v-0.5c3.3-0.9,3.7-1.6,4.8-4.5l4.2-10.9
			l2.2-6.1c0.3-1,0.8-1.9,0.4-2.6c1-0.4,1.9-1.1,2.7-2l8.1,21.7c1,2.7,1.6,3.8,4.6,4.3v0.5H358v-0.5c1.3-0.3,2.8-0.7,2.8-2.3
			c0-1.6-1.4-5-2.3-7.6L350,35.7L350,35.7z M354.1,24.4l-3.5,9.6h7.3L354.1,24.4z"/>
		<path class="st1" d="M390.1,20h0.3l0.5,6.9l-0.5,0.1c-1.3-4.6-3.3-4.8-7.6-4.8h-2.2v17.1c0,4.6,0.2,5.8,5.2,6.4v0.5h-13.6v-0.5
			c5-0.6,5.2-1.8,5.2-6.4V22.2h-2.2c-4.3,0-6.3,0.2-7.6,4.8l-0.5-0.1l0.5-6.9h0.3l0.4,0.3c0.9,0.9,1.1,0.8,2.3,0.8h17
			c1.2,0,1.4,0.1,2.3-0.8L390.1,20z"/>
		<path class="st1" d="M400.6,40.2c0.1,3.8,0.2,4.9,4.6,5.5v0.5h-12.4v-0.5c4.4-0.6,4.5-1.7,4.6-5.5v-13c-0.1-3.8-0.2-4.9-4.6-5.5
			v-0.5h12.4v0.5c-4.4,0.6-4.5,1.7-4.6,5.5V40.2z"/>
		<path class="st1" d="M435.4,33.7c0,8-5.8,13-13.5,13c-7.8,0-13.5-5.1-13.5-13.1c0-7.9,5.8-13,13.5-13
			C431.3,20.7,435.4,27.1,435.4,33.7z M412.6,32.8c0,5.7,3.1,13.1,9.7,13.1c6.1,0,8.8-6.2,8.8-11.5c-0.1-6.5-3.9-12.8-9.6-12.8
			C415.2,21.6,412.6,27.8,412.6,32.8z"/>
		<path class="st1" d="M462.4,40.5L462.2,27c-0.1-3.5-1-4.5-5.2-5.3v-0.5h10.1v0.5c-2.6,0.3-3.1,1.7-3.3,4.1c-0.5,4.1-0.3,13-0.2,21
			l-0.5,0.1c-5.9-7-12.5-13.5-18.8-20.2v6.8c0,9.2-0.2,11.1,5.1,12.2v0.5h-11.1v-0.5c5-0.5,4.8-3.9,4.8-12.3v-5.6
			c0-3.7-0.6-5.1-5.3-6.2v-0.5h6.1L462.4,40.5z"/>
		<path class="st1" d="M475,35.7c-0.7,1.9-2.2,5.7-2.2,7.5c0,2.2,2.6,2.2,4.2,2.5v0.5h-10.1v-0.5c3.3-0.9,3.7-1.6,4.8-4.5l4.2-10.9
			l2.2-6.1c0.3-1,0.8-1.9,0.4-2.6c1-0.4,1.9-1.1,2.7-2l8.1,21.7c1,2.7,1.6,3.8,4.6,4.3v0.5H483v-0.5c1.3-0.3,2.8-0.7,2.8-2.3
			c0-1.6-1.4-5-2.3-7.6L475,35.7L475,35.7z M479.1,24.4l-3.5,9.6h7.3L479.1,24.4z"/>
		<path class="st1" d="M494.1,45.7c4.4-0.6,4.5-1.7,4.6-5.5v-13c-0.1-3.8-0.2-4.9-4.6-5.5v-0.5h12.4v0.5c-4.4,0.6-4.6,1.7-4.6,5.5
			v12.2c0,1.9,0,3.8,0.5,5.6l4.5,0.3c5.6,0.4,6.5-1.3,9.4-6.1l0.5,0.2l-2.1,6.9h-20.7L494.1,45.7L494.1,45.7z"/>
	</g>
	<g>
		<path class="st1" d="M258.6,65.6c0,8-5.8,13-13.5,13c-7.8,0-13.5-5.1-13.5-13.1c0-7.9,5.8-13,13.5-13
			C254.5,52.5,258.6,59,258.6,65.6z M235.8,64.6c0,5.7,3.1,13.1,9.7,13.1c6.1,0,8.8-6.2,8.8-11.5c-0.1-6.5-3.9-12.8-9.6-12.8
			C238.4,53.4,235.8,59.6,235.8,64.6z"/>
		<path class="st1" d="M291,53v0.5c-3.4,0.4-3.6,2.5-3.8,7.3l-0.2,8.1c-0.1,4.8-2.1,9.6-10.4,9.6c-11.4,0-10.3-8.3-10.3-11.2V59
			c-0.1-3.8-0.2-4.9-4.6-5.5V53h12.8v0.5c-4.9,0.7-4.9,1.4-4.9,5.5v7.6c0,0.7-1.2,10.2,8.9,10.2c8,0,7.2-7.6,7.2-12.2v-3.9
			c0-4.7-0.4-6.9-5.6-7.3V53L291,53L291,53z"/>
		<path class="st1" d="M315.4,51.8h0.3l0.5,6.9l-0.5,0.1c-1.3-4.6-3.3-4.8-7.6-4.8h-2.2v17.1c0,4.6,0.2,5.8,5.2,6.4v0.5h-13.6v-0.5
			c5-0.6,5.2-1.8,5.2-6.4V54.1h-2.2c-4.3,0-6.3,0.2-7.6,4.8l-0.5-0.1l0.5-6.9h0.3l0.4,0.3c0.9,0.9,1.1,0.8,2.3,0.8h17
			c1.2,0,1.4,0.1,2.3-0.8L315.4,51.8z"/>
		<path class="st1" d="M322.6,60.6c0-5.7-0.2-6.5-4.3-6.9v-0.5l9-0.3c9.3-0.3,10.1,4.3,10.1,6.1c0,3.1-1.9,4.9-4.6,6.1l0.2,0.3
			c2.8,5,6.4,11.3,12.5,12.6l-0.1,0.5c-3.9-0.2-6.8-0.1-8.9-2.3c-2.5-2.6-4.4-5.8-5.1-7.4c-1.5-3.1-2.8-2.2-5.4-2.6v5.9
			c0,4.1,0.1,4.8,5.1,5.5v0.5h-13v-0.5c4.4-0.6,4.5-1.7,4.6-5.5L322.6,60.6L322.6,60.6z M325.8,65.5c3.5-0.1,7.7-1.7,7.7-5.8
			c0-4.3-3.8-6.1-7.7-6.1V65.5z"/>
		<path class="st1" d="M343.9,77.6c4.4-0.6,4.5-1.7,4.6-5.5v-13c-0.1-3.8-0.2-4.9-4.6-5.5V53h19.9l-0.4,5.7h-0.5
			c-0.3-4.8-3.7-4.8-7.4-4.8h-3.6v10.5h3.9c2.8,0,4.9-0.2,5.3-3.4h0.5v8.2H361c-0.5-3.3-2.5-3.3-5.3-3.3h-3.9v6.1
			c0,2.2-0.5,5.2,5.6,5.2c4.7,0,7-1.8,7.9-6.4h0.5c-0.1,2.8-0.5,5.1-1.3,7.3H344v-0.5H343.9z"/>
		<path class="st1" d="M374.5,67.6c-0.7,1.9-2.2,5.7-2.2,7.5c0,2.2,2.6,2.2,4.2,2.5v0.5h-10.1v-0.5c3.3-0.9,3.7-1.6,4.8-4.5
			l4.2-10.9l2.2-6.1c0.3-1,0.8-1.9,0.4-2.6c1-0.4,1.9-1.1,2.7-2l8.1,21.7c1,2.7,1.6,3.8,4.6,4.3V78h-10.9v-0.5
			c1.3-0.3,2.8-0.7,2.8-2.3c0-1.6-1.4-5-2.3-7.6L374.5,67.6L374.5,67.6z M378.6,56.3l-3.5,9.6h7.3L378.6,56.3z"/>
		<path class="st1" d="M417.4,60.6h-0.5c-0.7-4.2-3.2-7.2-7.6-7.2c-6.8,0-10.6,5.6-10.6,11.9c0,7.3,5.6,12.4,11,12.4
			c4.9,0,6.8-3.5,8.4-7.5l0.5,0.2c-0.4,2.2-1.1,4.5-2,6.7c-2.3,1.1-4.9,1.6-7.5,1.6c-7.7,0-14.6-4.4-14.6-12.8
			c0-6.6,5.1-13.2,14.9-13.2c2.8,0,5.7,0.5,8.1,2v6H417.4z"/>
		<path class="st1" d="M428.6,72.1c0,4.1,0.1,4.8,4.9,5.5v0.5h-12.8v-0.5c4.4-0.6,4.5-1.7,4.6-5.5v-13c-0.1-3.8-0.2-4.9-4.6-5.5V53
			h12.8v0.5c-4.9,0.7-4.9,1.4-4.9,5.5v5.3h14.9v-5.3c0-4.1-0.1-4.8-4.9-5.5V53h12.8v0.5c-4.4,0.6-4.5,1.7-4.6,5.5v13
			c0.1,3.8,0.2,4.9,4.6,5.5v0.5h-12.8v-0.5c4.9-0.7,4.9-1.4,4.9-5.5V66h-14.9V72.1z"/>
	</g>
</g>
<g>
	<line class="st2" x1="218" y1="11" x2="218" y2="87.3"/>
</g>
</svg>
