<?xml version="1.0" encoding="utf-8"?>
<!-- Generator: Adobe Illustrator 19.2.1, SVG Export Plug-In . SVG Version: 6.00 Build 0)  -->
<svg version="1.1" id="Layer_1" xmlns="http://www.w3.org/2000/svg" xmlns:xlink="http://www.w3.org/1999/xlink" x="0px" y="0px"
	 viewBox="0 0 1140 297" enable-background="new 0 0 1140 297" xml:space="preserve">
<path fill="#FFFFFF" d="M356.726,87.97v2.386c22.325,3.502,19.972,8.748,7.344,41.355l-17.332,45.012l-23.497-61.394
	c-3.817-10.02-10.575-22.745,10.133-24.973V87.97l-126.935-0.005v2.343c16.588,3.118,20.406,7.488,20.552,22.31l0.733,56.957
	l-72.516-81.609h-52.147v2.343c20.551,2.027,22.02,11.079,22.02,30.895v16.384c0,19.034,3.083,51.181-28.625,51.181
	c-40.223,0-35.525-40.259-35.525-43.224v-31.988c0-17.163,0.293-20.281,19.523-23.247v-2.343H29.81v2.343
	c17.616,2.493,17.762,7.177,18.203,23.247v34.953c0,12.482-4.698,47.431,40.809,47.431c32.59,0,40.664-20.437,41.104-40.566
	l0.882-34.17c0.584-20.562-2.54-30.888,10.721-30.888c13.259,0,10.45,10.457,10.45,26.051v23.404
	c0,35.417,0.734,49.775-19.084,51.961v2.34h43.894v-2.34c-21.288-4.524-20.406-12.486-20.406-51.181v-28.706
	c24.807,28.392,50.938,52.817,74.427,82.308l1.908-0.469c-0.733-34.017,0.587-68.617,0.587-85.9c0-10.7,1.757-17.449,11.072-17.449
	c10.141,0,9.415,7.209,9.852,23.221v54.926c-0.439,16.067-0.586,20.752-18.204,23.25v2.34h72.386l8.366-29.026l-1.909-0.932
	c-11.3,19.974-14.97,27.304-37.282,25.586l-8.237-1.402c-2.201-7.489-2.201-15.761-2.201-23.56v-51.182
	c0-16.07,2.458-23.296,16.999-23.296c14.539,0,19.121,11.869,23.53,23.479l33.188,80.414h2.899l27.213-66.896
	c9.103-23.062,13.363-35.628,27.165-36.9V87.97H356.726z"/>
<line fill="#FFFFFF" x1="416.526" y1="77" x2="416.526" y2="204.992"/>
<g>
	<path fill="#FFFFFF" d="M485.75,95.722h-1.143c-1.448-8.614-6.479-14.788-15.625-14.788c-13.949,0-21.8,11.434-21.8,24.545
		c0,15.016,11.51,25.459,22.562,25.459c9.985,0,13.948-7.318,17.379-15.55l1.067,0.457c-0.915,4.65-2.363,9.223-4.192,13.645
		c-4.878,2.363-10.138,3.277-15.55,3.277c-15.931,0-30.109-9.147-30.109-26.373c0-13.568,10.596-27.288,30.718-27.288
		c5.793,0,11.662,1.143,16.693,4.116V95.722z"/>
	<path fill="#FFFFFF" d="M550.54,105.936c0,16.388-11.89,26.831-27.898,26.831c-16.082,0-27.898-10.442-27.898-26.907
		c0-16.236,11.891-26.755,27.822-26.755C542.079,79.105,550.54,92.368,550.54,105.936z M503.586,104.03
		c0,11.815,6.251,26.907,19.971,26.907c12.577,0,18.14-12.806,18.14-23.706c-0.228-13.492-8.079-26.297-19.741-26.297
		C508.844,80.934,503.586,93.74,503.586,104.03z"/>
	<path fill="#FFFFFF" d="M606.105,119.885l-0.38-27.822c-0.076-7.241-2.058-9.376-10.672-10.9v-1.143h20.809v1.143
		c-5.259,0.686-6.25,3.583-6.859,8.538c-1.067,8.384-0.687,26.754-0.306,43.371l-0.99,0.228
		c-12.196-14.406-25.765-27.745-38.646-41.618v14.025c0,18.904-0.458,22.791,10.595,25.002v1.143h-22.79v-1.143
		c10.29-1.067,9.908-8.08,9.908-25.383V93.892c0-7.622-1.22-10.595-10.899-12.729v-1.143h12.577L606.105,119.885z"/>
	<path fill="#FFFFFF" d="M666.015,77.657h0.611l1.067,14.254l-1.067,0.229c-2.669-9.452-6.86-9.833-15.626-9.833h-4.574v35.215
		c0,9.452,0.458,11.968,10.672,13.187v1.143h-28.051v-1.143c10.214-1.219,10.672-3.735,10.672-13.187V82.306h-4.574
		c-8.766,0-12.957,0.381-15.626,9.833l-1.067-0.229l1.067-14.254h0.611l0.762,0.686c1.905,1.753,2.21,1.677,4.725,1.677h34.911
		c2.516,0,2.82,0.077,4.725-1.677L666.015,77.657z"/>
	<path fill="#FFFFFF" d="M687.585,119.351c0.229,7.851,0.306,10.138,9.452,11.357v1.143h-25.61v-1.143
		c9.146-1.219,9.222-3.506,9.451-11.357V92.521c-0.229-7.852-0.305-10.138-9.451-11.358v-1.143h25.61v1.143
		c-9.146,1.22-9.223,3.506-9.452,11.358V119.351z"/>
	<path fill="#FFFFFF" d="M750.926,119.885l-0.381-27.822c-0.076-7.241-2.058-9.376-10.672-10.9v-1.143h20.809v1.143
		c-5.259,0.686-6.25,3.583-6.859,8.538c-1.067,8.384-0.686,26.754-0.306,43.371l-0.99,0.228
		c-12.196-14.406-25.765-27.745-38.646-41.618v14.025c0,18.904-0.458,22.791,10.595,25.002v1.143h-22.79v-1.143
		c10.29-1.067,9.908-8.08,9.908-25.383V93.892c0-7.622-1.22-10.595-10.899-12.729v-1.143h12.577L750.926,119.885z"/>
	<path fill="#FFFFFF" d="M824.404,80.019v1.143c-6.936,0.762-7.394,5.031-7.699,15.093l-0.458,16.693
		c-0.229,9.832-4.421,19.818-21.343,19.818c-23.629,0-21.189-17.074-21.189-23.172V92.521c-0.229-7.852-0.305-10.138-9.452-11.358
		v-1.143h26.297v1.143c-9.985,1.448-10.137,2.973-10.137,11.358v15.625c0,1.449-2.44,21.114,18.446,21.114
		c16.464,0,14.864-15.702,14.864-25.002v-8.003c0-9.681-0.762-14.101-11.434-15.093v-1.143H824.404z"/>
	<path fill="#FFFFFF" d="M844.601,119.351c0.229,7.851,0.306,10.138,9.452,11.357v1.143h-25.61v-1.143
		c9.146-1.219,9.222-3.506,9.451-11.357V92.521c-0.229-7.852-0.305-10.138-9.451-11.358v-1.143h25.61v1.143
		c-9.146,1.22-9.223,3.506-9.452,11.358V119.351z"/>
	<path fill="#FFFFFF" d="M907.943,119.885l-0.381-27.822c-0.076-7.241-2.058-9.376-10.672-10.9v-1.143h20.809v1.143
		c-5.259,0.686-6.25,3.583-6.859,8.538c-1.067,8.384-0.686,26.754-0.306,43.371l-0.99,0.228
		c-12.197-14.406-25.765-27.745-38.646-41.618v14.025c0,18.904-0.458,22.791,10.595,25.002v1.143h-22.79v-1.143
		c10.29-1.067,9.908-8.08,9.908-25.383V93.892c0-7.622-1.22-10.595-10.899-12.729v-1.143h12.577L907.943,119.885z"/>
	<path fill="#FFFFFF" d="M975.171,125.982v1.143c-8.156,3.43-14.406,5.641-23.02,5.641c-15.702,0-29.041-9.528-29.041-26.221
		c0-16.922,14.788-27.441,30.719-27.441c6.021,0,12.119,1.067,17.836,2.973l-0.305,13.263h-0.991
		c-1.905-8.842-8.003-14.407-17.227-14.407c-13.186,0-21.191,10.062-21.191,22.791c0,15.092,10.748,26.45,25.916,26.45
		c6.936,0,6.86-1.829,6.86-6.784v-4.574c0-8.46-2.21-9.376-10.29-10.366v-1.143H977v1.143c-5.336,1.067-5.565,3.201-5.565,7.927
		v9.604H975.171z"/>
	<path fill="#FFFFFF" d="M436.586,202.698c9.147-1.221,9.223-3.507,9.452-11.358v-26.831c-0.229-7.852-0.305-10.138-9.452-11.357
		v-1.144h40.932l-0.915,11.739h-1.143c-0.534-9.832-7.622-9.91-15.321-9.91h-7.394v21.724h7.927c5.717,0,10.061-0.458,10.9-7.012
		h1.143v16.998h-1.143c-0.991-6.708-5.183-6.785-10.9-6.785h-7.927v12.5c0,4.499-1.067,10.749,11.434,10.749
		c9.604,0,14.33-3.658,16.236-13.263h1.143c-0.077,5.792-1.068,10.517-2.592,15.091h-42.381V202.698z"/>
	<path fill="#FFFFFF" d="M487.349,152.465l18.446-0.609c33.539-1.068,37.046,18.293,37.046,26.221
		c0,10.9-7.013,26.143-33.234,25.917l-22.715-0.154v-1.141c9.147-1.221,9.224-3.507,9.453-11.358v-26.45
		c-0.229-7.85-0.306-10.137-8.995-11.357V152.465z M503.052,192.1c0,5.108,0.914,9.985,10.366,9.985
		c8.765,0,20.58-5.486,20.58-22.866c0-18.294-14.406-25.917-30.946-25.841V192.1z"/>
	<path fill="#FFFFFF" d="M609.459,152.008v1.144c-6.936,0.762-7.394,5.03-7.699,15.091l-0.458,16.692
		c-0.229,9.834-4.421,19.819-21.342,19.819c-23.629,0-21.19-17.073-21.19-23.172v-17.074c-0.229-7.852-0.305-10.138-9.452-11.357
		v-1.144h26.297v1.144c-9.986,1.447-10.137,2.972-10.137,11.357v15.627c0,1.447-2.44,21.112,18.446,21.112
		c16.464,0,14.864-15.7,14.864-25v-8.005c0-9.679-0.762-14.101-11.434-15.091v-1.144H609.459z"/>
	<path fill="#FFFFFF" d="M662.585,167.709h-1.144c-1.447-8.613-6.479-14.787-15.626-14.787c-13.949,0-21.8,11.433-21.8,24.543
		c0,15.018,11.51,25.458,22.562,25.458c9.985,0,13.95-7.317,17.379-15.549l1.067,0.458c-0.914,4.651-2.363,9.225-4.192,13.644
		c-4.878,2.363-10.138,3.278-15.55,3.278c-15.931,0-30.108-9.147-30.108-26.372c0-13.569,10.595-27.288,30.719-27.288
		c5.792,0,11.662,1.143,16.693,4.116V167.709z"/>
	<path fill="#FFFFFF" d="M682.402,182.115c-1.296,3.813-4.65,11.739-4.65,15.397c0,4.651,5.26,4.651,8.69,5.186v1.141h-20.885
		v-1.141c6.783-1.831,7.47-3.355,9.832-9.302l8.613-22.485l4.574-12.425c0.686-1.981,1.678-3.81,0.839-5.259
		c2.058-0.838,3.963-2.211,5.563-4.116l16.769,44.668c2.058,5.563,3.355,7.774,9.452,8.919v1.141H698.79v-1.141
		c2.667-0.612,5.869-1.45,5.869-4.88c0-3.201-2.896-10.366-4.878-15.703H682.402z M690.863,158.792l-7.165,19.819h15.093
		L690.863,158.792z"/>
	<path fill="#FFFFFF" d="M764.877,149.645h0.611l1.067,14.253l-1.067,0.229c-2.669-9.451-6.861-9.832-15.626-9.832h-4.574v35.214
		c0,9.453,0.458,11.968,10.672,13.189v1.141h-28.052v-1.141c10.214-1.221,10.672-3.736,10.672-13.189v-35.214h-4.574
		c-8.765,0-12.957,0.382-15.626,9.832l-1.067-0.229l1.067-14.253h0.611l0.762,0.687c1.905,1.752,2.21,1.676,4.725,1.676h34.911
		c2.516,0,2.82,0.076,4.725-1.676L764.877,149.645z"/>
	<path fill="#FFFFFF" d="M786.447,191.339c0.229,7.852,0.306,10.137,9.452,11.358v1.141h-25.61v-1.141
		c9.146-1.221,9.222-3.507,9.451-11.358v-26.831c-0.229-7.852-0.305-10.138-9.451-11.357v-1.144h25.61v1.144
		c-9.146,1.219-9.223,3.505-9.452,11.357V191.339z"/>
	<path fill="#FFFFFF" d="M858.249,177.924c0,16.388-11.891,26.831-27.897,26.831c-16.084,0-27.898-10.443-27.898-26.907
		c0-16.235,11.891-26.754,27.821-26.754C849.788,151.094,858.249,164.356,858.249,177.924z M811.295,176.019
		c0,11.814,6.251,26.905,19.971,26.905c12.577,0,18.142-12.803,18.142-23.704c-0.229-13.492-8.08-26.297-19.742-26.297
		C816.555,152.923,811.295,165.729,811.295,176.019z"/>
	<path fill="#FFFFFF" d="M913.815,191.872l-0.38-27.821c-0.076-7.241-2.058-9.375-10.672-10.899v-1.144h20.809v1.144
		c-5.259,0.685-6.25,3.583-6.859,8.537c-1.067,8.384-0.686,26.754-0.306,43.372l-0.99,0.229
		c-12.196-14.408-25.765-27.746-38.646-41.619v14.024c0,18.905-0.458,22.792,10.595,25.003v1.141h-22.79v-1.141
		c10.29-1.07,9.908-8.08,9.908-25.383V165.88c0-7.623-1.22-10.595-10.899-12.729v-1.144h12.577L913.815,191.872z"/>
</g>
</svg>
